<?xml version="1.0" standalone="no"?>
<!DOCTYPE svg PUBLIC "-//W3C//DTD SVG 20010904//EN"
 "http://www.w3.org/TR/2001/REC-SVG-20010904/DTD/svg10.dtd">
<svg version="1.0" xmlns="http://www.w3.org/2000/svg"
 width="640.000000pt" height="640.000000pt" viewBox="0 0 640.000000 640.000000"
 preserveAspectRatio="xMidYMid meet">

<g transform="translate(0.000000,640.000000) scale(0.100000,-0.100000)">
<path d="M545 5716 c-108 -34 -195 -110 -242 -211 l-28 -60 0 -1905 0 -1905
31 -65 c52 -110 122 -174 231 -213 48 -17 91 -21 249 -25 l191 -4 13 -42 c46
-153 205 -355 363 -459 84 -56 193 -104 294 -129 124 -32 322 -31 443 0 98 26
222 83 309 141 134 92 269 259 330 412 l30 74 441 0 441 0 32 -80 c107 -263
351 -473 637 -547 121 -31 319 -32 443 0 101 25 210 73 294 129 145 96 292
276 350 427 l28 74 190 4 c157 4 200 9 248 25 108 38 182 107 234 219 l28 59
3 970 2 971 -586 644 c-725 798 -691 761 -748 795 -76 44 -141 55 -343 55
l-183 0 0 133 c0 263 -40 370 -175 462 -99 69 16 65 -1835 64 -1324 0 -1683
-3 -1715 -13z m1845 -1084 c42 -21 64 -40 95 -85 l40 -59 3 -244 3 -244 217 0
c119 0 234 -5 254 -10 20 -6 58 -25 84 -43 160 -109 143 -357 -31 -450 -37
-20 -58 -22 -280 -27 l-240 -5 -5 -240 c-6 -265 -6 -267 -76 -345 -40 -44
-122 -80 -183 -80 -99 0 -187 53 -237 142 l-29 53 -3 238 -3 237 -223 0 c-255
0 -290 7 -357 72 -134 130 -102 342 65 431 38 21 57 22 278 25 l237 3 3 237
c3 221 5 240 25 277 40 76 108 127 198 149 38 9 110 -5 165 -32z m2545 -538
c220 -240 410 -449 423 -465 l23 -29 -555 0 -556 0 0 465 0 465 133 0 133 0
399 -436z m-2972 -2109 c81 -21 127 -47 182 -102 229 -228 104 -618 -214 -674
-239 -42 -461 146 -461 391 0 261 243 450 493 385z m2648 5 c271 -52 407 -369
258 -602 -199 -309 -669 -209 -729 156 -18 114 28 253 115 339 95 95 220 133
356 107z"/>
</g>
</svg>
