<?xml version="1.0" standalone="no"?>
<!DOCTYPE svg PUBLIC "-//W3C//DTD SVG 20010904//EN"
 "http://www.w3.org/TR/2001/REC-SVG-20010904/DTD/svg10.dtd">
<svg version="1.0" xmlns="http://www.w3.org/2000/svg"
 width="640.000000pt" height="640.000000pt" viewBox="0 0 640.000000 640.000000"
 preserveAspectRatio="xMidYMid meet" fill="#000000">

<g transform="translate(0.000000,640.000000) scale(0.100000,-0.100000)">
<path d="M3050 6394 c-429 -51 -810 -250 -1069 -560 -91 -109 -177 -241 -228
-351 -18 -39 -33 -74 -33 -77 0 -3 228 -6 507 -6 l506 0 564 422 c309 233 563
426 563 429 0 4 -8 9 -17 12 -10 3 -68 24 -129 46 -160 57 -298 82 -479 86
-82 2 -166 1 -185 -1z"/>
<path d="M3815 5712 l-408 -307 316 -3 c173 -1 460 -1 637 0 l321 3 -45 93
c-82 168 -239 376 -362 479 l-50 41 -409 -306z"/>
<path d="M1613 4953 c-16 -94 -8 -331 16 -451 126 -648 607 -1133 1265 -1274
136 -29 443 -32 581 -5 456 89 831 341 1077 723 45 70 124 235 156 324 80 229
112 522 76 698 l-6 32 -1579 0 -1578 0 -8 -47z"/>
<path d="M2200 2796 c0 -2 119 -271 264 -597 l264 -594 513 -5 514 -6 97 -26
c348 -95 623 -373 714 -723 34 -130 39 -338 11 -454 -26 -109 -70 -216 -126
-306 l-49 -80 526 -3 c453 -2 537 0 600 13 225 50 410 236 457 460 18 85 21
644 4 806 -64 630 -467 1168 -1047 1398 -204 81 -362 111 -624 118 l-197 6
-88 -36 c-336 -136 -708 -192 -1042 -157 -205 22 -457 86 -635 161 -40 17 -86
29 -112 29 -24 0 -44 -2 -44 -4z"/>
<path d="M1695 2754 c-82 -20 -212 -63 -257 -86 l-38 -18 0 -1325 0 -1325 800
0 c440 0 800 3 799 8 -2 21 -1226 2756 -1234 2758 -5 1 -37 -4 -70 -12z"/>
<path d="M913 2318 c-194 -187 -341 -420 -424 -670 -76 -227 -81 -264 -86
-706 -5 -444 -1 -482 64 -615 46 -91 160 -208 250 -255 66 -35 195 -72 250
-72 l33 0 0 1195 c0 657 -3 1195 -6 1195 -3 0 -40 -33 -81 -72z"/>
<path d="M2910 1197 c0 -1 119 -270 264 -597 l265 -595 108 -3 c203 -5 341 46
474 177 238 237 238 603 -1 841 -86 87 -164 132 -276 160 -70 18 -112 20 -456
20 -208 0 -378 -1 -378 -3z"/>
</g>
</svg>
