<?xml version="1.0" standalone="no"?>
<!DOCTYPE svg PUBLIC "-//W3C//DTD SVG 20010904//EN"
 "http://www.w3.org/TR/2001/REC-SVG-20010904/DTD/svg10.dtd">
<svg version="1.0" xmlns="http://www.w3.org/2000/svg"
 width="640.000000pt" height="640.000000pt" viewBox="0 0 640.000000 640.000000"
 preserveAspectRatio="xMidYMid meet">

<g transform="translate(0.000000,640.000000) scale(0.100000,-0.100000)">
<path d="M1680 5689 c-55 -25 -95 -62 -123 -114 -21 -38 -22 -54 -25 -377 l-3
-337 -672 -3 -672 -3 -50 -27 c-61 -32 -88 -59 -114 -118 -19 -42 -21 -65 -21
-327 l0 -283 3200 0 3200 0 0 278 c-1 298 -4 321 -54 387 -15 19 -51 48 -79
63 l-52 27 -672 3 -672 3 -3 332 c-3 361 -4 365 -64 436 -15 19 -51 44 -79 57
l-50 24 -1475 0 c-1462 0 -1475 -1 -1520 -21z m2710 -644 l0 -185 -1190 0
-1190 0 0 185 0 185 1190 0 1190 0 0 -185z"/>
<path d="M0 2362 c0 -1626 -4 -1524 64 -1594 19 -19 51 -43 72 -54 38 -19 104
-19 3052 -22 l3013 -2 50 21 c59 26 121 92 137 147 9 29 12 411 12 1506 l0
1466 -3200 0 -3200 0 0 -1468z m3399 903 c27 -13 61 -39 76 -57 56 -66 59 -82
63 -360 l4 -258 251 0 c244 0 254 -1 303 -24 57 -27 110 -84 124 -136 6 -19
10 -100 10 -180 0 -119 -4 -152 -19 -185 -24 -52 -58 -88 -112 -117 -42 -22
-54 -23 -301 -26 l-256 -3 -4 -257 c-3 -219 -6 -263 -21 -297 -25 -55 -63 -93
-122 -121 -45 -21 -64 -24 -189 -24 -161 0 -201 9 -260 62 -75 65 -80 86 -84
380 l-4 257 -256 3 -257 3 -55 31 c-38 22 -64 46 -85 79 -29 48 -30 51 -33
204 -2 96 1 170 8 194 15 52 66 106 125 133 48 23 59 24 302 24 l251 0 4 263
c3 245 5 265 25 302 27 50 71 93 120 116 31 14 67 18 191 18 143 1 156 -1 201
-24z"/>
</g>
</svg>
